<svg width="33" height="31" viewBox="0 0 33 31" fill="none" xmlns="http://www.w3.org/2000/svg">
<path d="M22.8458 18.2333C23.5576 18.2333 24.1911 17.9557 24.7464 17.4005C25.3016 16.8453 25.5792 16.1976 25.5792 15.4573C25.5792 14.7455 25.3016 14.1191 24.7464 13.5781C24.1911 13.0372 23.5576 12.7667 22.8458 12.7667C22.134 12.7667 21.5005 13.0372 20.9453 13.5781C20.3901 14.1191 20.1125 14.7455 20.1125 15.4573C20.1125 16.1976 20.3901 16.8453 20.9453 17.4005C21.5005 17.9557 22.134 18.2333 22.8458 18.2333ZM2.6875 26.049V28.3125V2.6875V26.049ZM2.6875 30.875C2.03264 30.875 1.44184 30.6187 0.915104 30.1062C0.388368 29.5938 0.125 28.9958 0.125 28.3125V2.6875C0.125 2.03264 0.388368 1.44184 0.915104 0.915104C1.44184 0.388368 2.03264 0.125 2.6875 0.125H28.3125C28.9958 0.125 29.5938 0.388368 30.1063 0.915104C30.6188 1.44184 30.875 2.03264 30.875 2.6875V8.41042H28.3125V2.6875H2.6875V28.3125H28.3125V22.6323H30.875V28.3125C30.875 28.9958 30.6188 29.5938 30.1063 30.1062C29.5938 30.6187 28.9958 30.875 28.3125 30.875H2.6875ZM17.9771 23.4865C17.009 23.4865 16.2403 23.2017 15.6708 22.6323C15.1014 22.0628 14.8167 21.3083 14.8167 20.3688V10.674C14.8167 9.7059 15.1014 8.94427 15.6708 8.38906C16.2403 7.83385 17.009 7.55625 17.9771 7.55625H29.5083C30.4764 7.55625 31.2451 7.83385 31.8146 8.38906C32.384 8.94427 32.6688 9.7059 32.6688 10.674V20.3688C32.6688 21.3083 32.384 22.0628 31.8146 22.6323C31.2451 23.2017 30.4764 23.4865 29.5083 23.4865H17.9771ZM30.1063 20.924V10.1188H17.3792V20.924H30.1063Z" fill="#F4F4F4"/>
</svg>
